<svg width="144" height="114" viewBox="0 0 144 114" fill="none" xmlns="http://www.w3.org/2000/svg">
<path d="M54.661 28.7746L36.001 20.0533C34.9873 19.5795 33.8821 19.3338 32.7631 19.3336C31.6442 19.3334 30.5389 19.5786 29.525 20.0519L11.041 28.6786C10.5134 28.9248 10.0669 29.3164 9.75412 29.8075C9.44129 30.2985 9.27504 30.8686 9.2749 31.4509C9.27476 32.0331 9.44073 32.6033 9.75333 33.0945C10.0659 33.5857 10.5122 33.9775 11.0397 34.2239L29.6997 42.9453C30.7132 43.4193 31.8184 43.6652 32.9374 43.6656C34.0563 43.6661 35.1617 43.4211 36.1757 42.948L54.6597 34.3199C55.1873 34.0738 55.6337 33.6821 55.9465 33.1911C56.2594 32.7 56.4256 32.1299 56.4258 31.5477C56.4259 30.9655 56.2599 30.3953 55.9473 29.9041C55.6347 29.4129 55.1885 29.0211 54.661 28.7746Z" stroke="#D34D4A" stroke-linecap="round" stroke-linejoin="round"/>
<path d="M18.4863 37.704L11.041 41.1786C10.513 41.4247 10.0662 41.8163 9.75308 42.3075C9.43997 42.7987 9.27358 43.3691 9.27344 43.9516C9.2733 44.5341 9.43942 45.1045 9.75228 45.5958C10.0651 46.0872 10.5118 46.479 11.0396 46.7253L29.6996 55.4453C30.7132 55.9193 31.8184 56.1652 32.9373 56.1656C34.0563 56.1661 35.1617 55.9211 36.1756 55.448L54.6596 46.8213C55.1872 46.5751 55.6337 46.1835 55.9465 45.6925C56.2593 45.2014 56.4256 44.6313 56.4257 44.0491C56.4259 43.4668 56.2599 42.8967 55.9473 42.4055C55.6347 41.9143 55.1885 41.5224 54.661 41.276L47.2143 37.796" stroke="#D34D4A" stroke-linecap="round" stroke-linejoin="round"/>
<path d="M18.4863 50.2053L11.041 53.68C10.513 53.926 10.0662 54.3176 9.75308 54.8088C9.43997 55.3 9.27358 55.8704 9.27344 56.4529C9.2733 57.0354 9.43942 57.6058 9.75228 58.0972C10.0651 58.5885 10.5118 58.9804 11.0396 59.2267L29.6996 67.9467C30.7133 68.4204 31.8186 68.6661 32.9375 68.6663C34.0564 68.6666 35.1618 68.4213 36.1756 67.948L54.6596 59.3213C55.1872 59.0751 55.6337 58.6835 55.9465 58.1925C56.2593 57.7014 56.4256 57.1313 56.4257 56.5491C56.4259 55.9669 56.2599 55.3967 55.9473 54.9055C55.6347 54.4143 55.1885 54.0224 54.661 53.776L47.2143 50.296" stroke="#D34D4A" stroke-linecap="round" stroke-linejoin="round"/>
<path d="M104.661 66.7746L86.001 58.0533C84.9873 57.5795 83.8821 57.3338 82.7631 57.3336C81.6442 57.3334 80.5389 57.5786 79.525 58.0519L61.041 66.6786C60.5134 66.9248 60.0669 67.3164 59.7541 67.8075C59.4413 68.2985 59.275 68.8686 59.2749 69.4509C59.2748 70.0331 59.4407 70.6033 59.7533 71.0945C60.0659 71.5857 60.5122 71.9775 61.0397 72.2239L79.6997 80.9453C80.7132 81.4193 81.8184 81.6652 82.9374 81.6656C84.0563 81.6661 85.1617 81.4211 86.1757 80.948L104.66 72.3199C105.187 72.0738 105.634 71.6821 105.947 71.1911C106.259 70.7 106.426 70.1299 106.426 69.5477C106.426 68.9655 106.26 68.3953 105.947 67.9041C105.635 67.4129 105.189 67.0211 104.661 66.7746Z" stroke="black" stroke-linecap="round" stroke-linejoin="round"/>
<path d="M68.4863 75.704L61.041 79.1786C60.513 79.4247 60.0662 79.8163 59.7531 80.3075C59.44 80.7987 59.2736 81.3691 59.2734 81.9516C59.2733 82.5341 59.4394 83.1045 59.7523 83.5958C60.0651 84.0872 60.5118 84.479 61.0396 84.7253L79.6996 93.4453C80.7132 93.9193 81.8184 94.1652 82.9373 94.1656C84.0563 94.1661 85.1617 93.9211 86.1756 93.448L104.66 84.8213C105.187 84.5751 105.634 84.1835 105.947 83.6925C106.259 83.2014 106.426 82.6313 106.426 82.0491C106.426 81.4668 106.26 80.8967 105.947 80.4055C105.635 79.9143 105.188 79.5224 104.661 79.276L97.2143 75.796" stroke="black" stroke-linecap="round" stroke-linejoin="round"/>
<path d="M68.4863 88.2053L61.041 91.68C60.513 91.926 60.0662 92.3176 59.7531 92.8088C59.44 93.3 59.2736 93.8704 59.2734 94.4529C59.2733 95.0354 59.4394 95.6058 59.7523 96.0972C60.0651 96.5885 60.5118 96.9804 61.0396 97.2267L79.6996 105.947C80.7133 106.42 81.8186 106.666 82.9375 106.666C84.0564 106.667 85.1618 106.421 86.1756 105.948L104.66 97.3213C105.187 97.0751 105.634 96.6835 105.947 96.1925C106.259 95.7014 106.426 95.1313 106.426 94.5491C106.426 93.9669 106.26 93.3967 105.947 92.9055C105.635 92.4143 105.188 92.0224 104.661 91.776L97.2143 88.296" stroke="black" stroke-linecap="round" stroke-linejoin="round"/>
<path d="M132.96 16.7746L114.3 8.05328C113.287 7.57951 112.181 7.33385 111.062 7.33362C109.944 7.33339 108.838 7.57859 107.824 8.05195L89.3403 16.6786C88.8127 16.9248 88.3663 17.3164 88.0534 17.8075C87.7406 18.2985 87.5744 18.8686 87.5742 19.4509C87.5741 20.0331 87.74 20.6033 88.0526 21.0945C88.3652 21.5857 88.8115 21.9775 89.339 22.2239L107.999 30.9453C109.013 31.4193 110.118 31.6652 111.237 31.6656C112.356 31.6661 113.461 31.4211 114.475 30.948L132.959 22.3199C133.487 22.0738 133.933 21.6821 134.246 21.1911C134.559 20.7 134.725 20.1299 134.725 19.5477C134.725 18.9655 134.559 18.3953 134.247 17.9041C133.934 17.4129 133.488 17.0211 132.96 16.7746Z" stroke="#669B7C" stroke-linecap="round" stroke-linejoin="round"/>
<path d="M96.7856 25.704L89.3403 29.1786C88.8123 29.4247 88.3655 29.8163 88.0524 30.3075C87.7393 30.7987 87.5729 31.3691 87.5728 31.9516C87.5726 32.5341 87.7387 33.1045 88.0516 33.5958C88.3645 34.0872 88.8111 34.479 89.3389 34.7253L107.999 43.4453C109.013 43.9193 110.118 44.1652 111.237 44.1656C112.356 44.1661 113.461 43.9211 114.475 43.448L132.959 34.8213C133.487 34.5751 133.933 34.1835 134.246 33.6925C134.559 33.2014 134.725 32.6313 134.725 32.0491C134.725 31.4668 134.559 30.8967 134.247 30.4055C133.934 29.9143 133.488 29.5224 132.96 29.276L125.514 25.796" stroke="#669B7C" stroke-linecap="round" stroke-linejoin="round"/>
<path d="M96.7856 38.2053L89.3403 41.68C88.8123 41.926 88.3655 42.3176 88.0524 42.8088C87.7393 43.3 87.5729 43.8704 87.5728 44.4529C87.5726 45.0354 87.7387 45.6058 88.0516 46.0972C88.3645 46.5885 88.8111 46.9804 89.3389 47.2267L107.999 55.9467C109.013 56.4204 110.118 56.6661 111.237 56.6663C112.356 56.6666 113.461 56.4213 114.475 55.948L132.959 47.3213C133.487 47.0751 133.933 46.6835 134.246 46.1925C134.559 45.7014 134.725 45.1313 134.725 44.5491C134.725 43.9669 134.559 43.3967 134.247 42.9055C133.934 42.4143 133.488 42.0224 132.96 41.776L125.514 38.296" stroke="#669B7C" stroke-linecap="round" stroke-linejoin="round"/>
</svg>
