<svg width="142" height="114" viewBox="0 0 142 114" fill="none" xmlns="http://www.w3.org/2000/svg">
<path d="M83.0125 19.355C82.1185 18.831 81.2455 18.566 80.5555 18.566C79.8695 18.566 79.3675 18.831 79.2155 19.355C78.9055 20.404 80.1115 22.104 81.9015 23.153C82.7975 23.679 83.6695 23.941 84.3575 23.941C85.0435 23.941 85.5455 23.679 85.7015 23.153C86.0085 22.104 84.8045 20.404 83.0125 19.355ZM68.8425 48.144C68.1975 47.913 67.2885 47.867 66.2665 48.06C64.2265 48.451 62.5225 49.651 62.4595 50.742C62.4275 51.287 62.8135 51.704 63.4615 51.933C64.1085 52.164 65.0185 52.208 66.0375 52.014C68.0785 51.626 69.7835 50.427 69.8465 49.333C69.8785 48.788 69.4925 48.372 68.8425 48.144ZM78.7145 45.923C78.0685 45.694 77.1565 45.646 76.1385 45.841C74.0995 46.23 72.3965 47.427 72.3335 48.521C72.3035 49.067 72.6885 49.482 73.3355 49.712C73.9825 49.942 74.8935 49.987 75.9115 49.795C77.9545 49.405 79.6535 48.207 79.7185 47.114C79.7465 46.568 79.3625 46.154 78.7145 45.923ZM88.1785 43.989C87.5335 43.76 86.6205 43.714 85.6005 43.908C83.5635 44.297 81.8585 45.495 81.7975 46.589C81.7675 47.134 82.1515 47.55 82.7995 47.78C83.4455 48.01 84.3575 48.055 85.3775 47.861C87.4185 47.472 89.1195 46.274 89.1825 45.182C89.2125 44.635 88.8265 44.22 88.1785 43.989ZM61.0925 26.28C60.5525 26.704 60.0275 27.45 59.6435 28.416C58.8815 30.348 58.9835 32.426 59.8705 33.063C60.3165 33.381 60.8745 33.28 61.4145 32.856C61.9575 32.432 62.4825 31.686 62.8645 30.721C63.6265 28.79 63.5255 26.709 62.6375 26.072C62.1925 25.754 61.6335 25.855 61.0925 26.28ZM50.0925 22.931C49.5495 23.355 49.0245 24.099 48.6425 25.065C47.8785 26.996 47.9795 29.077 48.8715 29.712C49.3135 30.031 49.8715 29.928 50.4145 29.504C50.9545 29.08 51.4795 28.335 51.8615 27.369C52.6255 25.439 52.5235 23.358 51.6345 22.72C51.1905 22.403 50.6325 22.505 50.0925 22.931Z" fill="#D34D4A"/>
<path d="M101.404 35.723L94.8494 15.955C93.8594 12.969 90.7454 9.85199 87.7574 8.86199L67.9874 2.30699C66.7534 1.89799 65.6444 1.89999 64.7904 2.30299C63.8664 2.55399 62.8104 2.95199 61.7284 3.45599C60.2494 4.14499 58.4254 5.19199 57.6514 6.10299C57.5643 6.17766 57.48 6.25537 57.3984 6.33599L44.1394 19.598C42.0784 21.658 41.1614 25.578 42.0524 28.523L47.8144 47.607C47.9194 47.956 48.0494 48.285 48.2014 48.586C48.6654 49.998 50.5674 51.977 51.1514 52.561C51.7374 53.146 53.7194 55.053 55.1314 55.516C55.4314 55.665 55.7604 55.795 56.1074 55.9L75.1904 61.662C75.9304 61.887 76.7434 62 77.6084 62C80.0874 62 82.6414 61.048 84.1134 59.576L97.3754 46.313C97.4594 46.229 97.5354 46.145 97.6094 46.06C98.5214 45.283 99.5684 43.459 100.255 41.985C100.762 40.898 101.16 39.839 101.411 38.914C101.815 38.055 101.813 36.955 101.404 35.723ZM51.2214 49.767C50.4944 48.883 50.1094 48.228 50.0324 47.956L49.9584 47.772C49.8392 47.5403 49.7422 47.2979 49.6684 47.048L43.9044 27.963C43.2254 25.718 43.9594 22.514 45.5074 20.967L58.7694 7.70399C58.8374 7.63499 58.9094 7.57499 58.9784 7.51499L59.1064 7.38099C59.3324 7.09499 59.9454 6.62899 60.8254 6.11099C61.6644 6.37599 62.3784 7.16799 62.7654 8.45399L68.5274 27.539C69.3114 30.132 68.4854 33.698 66.6824 35.501L53.4224 48.763C52.7004 49.484 51.9344 49.797 51.2214 49.767ZM96.3284 44.607L96.1914 44.74C96.1324 44.808 96.0744 44.877 96.0054 44.945L82.7454 58.208C81.6354 59.318 79.5704 60.063 77.6094 60.063C76.9806 60.0697 76.3533 59.9841 75.7494 59.809L56.6664 54.047C56.4166 53.9726 56.1742 53.8751 55.9424 53.756L55.7574 53.684C55.4864 53.608 54.8314 53.221 53.9474 52.494C53.9164 51.78 54.2274 51.015 54.9504 50.292L68.2094 37.031C70.0134 35.227 73.5774 34.401 76.1714 35.185L95.2544 40.948C96.5424 41.337 97.3344 42.052 97.5984 42.891C97.0824 43.769 96.6144 44.38 96.3284 44.607ZM99.6424 38.127L99.5664 38.327C99.4724 38.684 99.3434 39.08 99.1944 39.49C98.6574 39.593 97.9974 39.537 97.2324 39.283L77.4634 32.728C74.7754 31.838 71.8734 28.936 70.9854 26.249L64.4304 6.47999C64.1774 5.71499 64.1204 5.05599 64.2234 4.51799C64.6314 4.37099 65.0244 4.24199 65.3804 4.14799L65.5834 4.06899C65.7564 3.97899 65.9794 3.93299 66.2464 3.93299C66.5784 3.93299 66.9594 4.00399 67.3804 4.14299L87.1494 10.698C89.5374 11.49 92.2214 14.176 93.0124 16.563L99.5684 36.331C99.8164 37.085 99.8444 37.738 99.6424 38.127Z" fill="#D34D4A"/>
<path d="M98.5133 69.3547C99.4073 68.8307 100.28 68.5657 100.97 68.5657C101.656 68.5657 102.158 68.8307 102.31 69.3547C102.62 70.4037 101.414 72.1037 99.6243 73.1527C98.7283 73.6787 97.8563 73.9407 97.1683 73.9407C96.4823 73.9407 95.9803 73.6787 95.8243 73.1527C95.5173 72.1037 96.7213 70.4037 98.5133 69.3547ZM112.683 98.1437C113.328 97.9127 114.237 97.8667 115.259 98.0597C117.299 98.4507 119.003 99.6507 119.066 100.742C119.098 101.287 118.712 101.704 118.064 101.933C117.417 102.164 116.507 102.208 115.488 102.014C113.447 101.626 111.742 100.427 111.679 99.3327C111.647 98.7877 112.033 98.3717 112.683 98.1437ZM102.811 95.9227C103.457 95.6937 104.369 95.6457 105.387 95.8407C107.426 96.2297 109.129 97.4267 109.192 98.5207C109.222 99.0667 108.837 99.4817 108.19 99.7117C107.543 99.9417 106.632 99.9867 105.614 99.7947C103.571 99.4047 101.872 98.2067 101.807 97.1137C101.779 96.5677 102.163 96.1537 102.811 95.9227ZM93.3473 93.9887C93.9923 93.7597 94.9053 93.7137 95.9253 93.9077C97.9623 94.2967 99.6673 95.4947 99.7283 96.5887C99.7583 97.1337 99.3743 97.5497 98.7263 97.7797C98.0803 98.0097 97.1683 98.0547 96.1483 97.8607C94.1073 97.4717 92.4063 96.2737 92.3433 95.1817C92.3133 94.6347 92.6993 94.2197 93.3473 93.9887ZM120.433 76.2797C120.973 76.7037 121.498 77.4497 121.882 78.4157C122.644 80.3477 122.542 82.4257 121.655 83.0627C121.209 83.3807 120.651 83.2797 120.111 82.8557C119.568 82.4317 119.043 81.6857 118.661 80.7207C117.899 78.7897 118 76.7087 118.888 76.0717C119.333 75.7537 119.892 75.8547 120.433 76.2797ZM131.433 72.9307C131.976 73.3547 132.501 74.0987 132.883 75.0647C133.647 76.9957 133.546 79.0767 132.654 79.7117C132.212 80.0307 131.654 79.9277 131.111 79.5037C130.571 79.0797 130.046 78.3347 129.664 77.3687C128.9 75.4387 129.002 73.3577 129.891 72.7197C130.335 72.4027 130.893 72.5047 131.433 72.9307Z" fill="#669B7C"/>
<path d="M80.1212 85.7226L86.6762 65.9546C87.6662 62.9686 90.7802 59.8516 93.7682 58.8616L113.538 52.3066C114.772 51.8976 115.881 51.8996 116.735 52.3026C117.659 52.5536 118.715 52.9516 119.797 53.4556C121.276 54.1446 123.1 55.1916 123.874 56.1026C123.961 56.1773 124.046 56.255 124.127 56.3356L137.386 69.5976C139.447 71.6576 140.364 75.5776 139.473 78.5226L133.711 97.6066C133.606 97.9556 133.476 98.2846 133.324 98.5856C132.86 99.9976 130.958 101.977 130.374 102.561C129.788 103.146 127.806 105.053 126.394 105.516C126.094 105.665 125.765 105.795 125.418 105.9L106.335 111.662C105.595 111.887 104.782 112 103.917 112C101.438 112 98.8842 111.048 97.4122 109.576L84.1502 96.3126C84.0662 96.2286 83.9902 96.1446 83.9162 96.0596C83.0042 95.2826 81.9572 93.4586 81.2702 91.9846C80.7632 90.8976 80.3652 89.8386 80.1142 88.9136C79.7102 88.0546 79.7122 86.9546 80.1212 85.7226ZM130.304 99.7666C131.031 98.8826 131.416 98.2276 131.493 97.9556L131.567 97.7716C131.686 97.5399 131.783 97.2975 131.857 97.0476L137.621 77.9626C138.3 75.7176 137.566 72.5136 136.018 70.9666L122.756 57.7036C122.688 57.6346 122.616 57.5746 122.547 57.5146L122.419 57.3806C122.193 57.0946 121.58 56.6286 120.7 56.1106C119.861 56.3756 119.147 57.1676 118.76 58.4536L112.998 77.5386C112.214 80.1316 113.04 83.6976 114.843 85.5006L128.103 98.7626C128.825 99.4836 129.591 99.7966 130.304 99.7666ZM85.1972 94.6066L85.3342 94.7396C85.3932 94.8076 85.4512 94.8766 85.5202 94.9446L98.7802 108.208C99.8902 109.318 101.955 110.063 103.916 110.063C104.545 110.069 105.172 109.984 105.776 109.809L124.859 104.047C125.109 103.972 125.351 103.875 125.583 103.756L125.768 103.684C126.039 103.608 126.694 103.221 127.578 102.494C127.609 101.78 127.298 101.015 126.575 100.292L113.316 87.0306C111.512 85.2266 107.948 84.4006 105.354 85.1846L86.2712 90.9476C84.9832 91.3366 84.1912 92.0516 83.9272 92.8906C84.4432 93.7686 84.9112 94.3796 85.1972 94.6066ZM81.8832 88.1266L81.9592 88.3266C82.0532 88.6836 82.1822 89.0796 82.3312 89.4896C82.8682 89.5926 83.5282 89.5366 84.2932 89.2826L104.062 82.7276C106.75 81.8376 109.652 78.9356 110.54 76.2486L117.095 56.4796C117.348 55.7146 117.405 55.0556 117.302 54.5176C116.894 54.3706 116.501 54.2416 116.145 54.1476L115.942 54.0686C115.769 53.9786 115.546 53.9326 115.279 53.9326C114.947 53.9326 114.566 54.0036 114.145 54.1426L94.3762 60.6976C91.9882 61.4896 89.3042 64.1756 88.5132 66.5626L81.9572 86.3306C81.7092 87.0846 81.6812 87.7376 81.8832 88.1266Z" fill="#669B7C"/>
<path d="M43.4867 69.3547C42.5927 68.8307 41.7197 68.5657 41.0297 68.5657C40.3437 68.5657 39.8417 68.8307 39.6897 69.3547C39.3797 70.4037 40.5857 72.1037 42.3757 73.1527C43.2717 73.6787 44.1437 73.9407 44.8317 73.9407C45.5177 73.9407 46.0197 73.6787 46.1757 73.1527C46.4827 72.1037 45.2787 70.4037 43.4867 69.3547ZM29.3167 98.1437C28.6717 97.9127 27.7627 97.8667 26.7407 98.0597C24.7007 98.4507 22.9967 99.6507 22.9337 100.742C22.9017 101.287 23.2877 101.704 23.9357 101.933C24.5827 102.164 25.4927 102.208 26.5117 102.014C28.5527 101.626 30.2577 100.427 30.3207 99.3327C30.3527 98.7877 29.9667 98.3717 29.3167 98.1437ZM39.1887 95.9227C38.5427 95.6937 37.6307 95.6457 36.6127 95.8407C34.5737 96.2297 32.8707 97.4267 32.8077 98.5207C32.7777 99.0667 33.1627 99.4817 33.8097 99.7117C34.4567 99.9417 35.3677 99.9867 36.3857 99.7947C38.4287 99.4047 40.1277 98.2067 40.1927 97.1137C40.2207 96.5677 39.8367 96.1537 39.1887 95.9227ZM48.6527 93.9887C48.0077 93.7597 47.0947 93.7137 46.0747 93.9077C44.0377 94.2967 42.3327 95.4947 42.2717 96.5887C42.2417 97.1337 42.6257 97.5497 43.2737 97.7797C43.9197 98.0097 44.8317 98.0547 45.8517 97.8607C47.8927 97.4717 49.5937 96.2737 49.6567 95.1817C49.6867 94.6347 49.3007 94.2197 48.6527 93.9887ZM21.5667 76.2797C21.0267 76.7037 20.5017 77.4497 20.1177 78.4157C19.3557 80.3477 19.4577 82.4257 20.3447 83.0627C20.7907 83.3807 21.3487 83.2797 21.8887 82.8557C22.4317 82.4317 22.9567 81.6857 23.3387 80.7207C24.1007 78.7897 23.9997 76.7087 23.1117 76.0717C22.6667 75.7537 22.1077 75.8547 21.5667 76.2797ZM10.5667 72.9307C10.0237 73.3547 9.49866 74.0987 9.11666 75.0647C8.35266 76.9957 8.45366 79.0767 9.34566 79.7117C9.78766 80.0307 10.3457 79.9277 10.8887 79.5037C11.4287 79.0797 11.9537 78.3347 12.3357 77.3687C13.0997 75.4387 12.9977 73.3577 12.1087 72.7197C11.6647 72.4027 11.1067 72.5047 10.5667 72.9307Z" fill="#1D5464"/>
<path d="M61.8785 85.7226L55.3235 65.9546C54.3335 62.9686 51.2195 59.8516 48.2315 58.8616L28.4615 52.3066C27.2275 51.8976 26.1185 51.8996 25.2645 52.3026C24.3405 52.5536 23.2845 52.9516 22.2025 53.4556C20.7235 54.1446 18.8995 55.1916 18.1255 56.1026C18.0385 56.1773 17.9541 56.255 17.8725 56.3356L4.61352 69.5976C2.55252 71.6576 1.63552 75.5776 2.52652 78.5226L8.28852 97.6066C8.39352 97.9556 8.52352 98.2846 8.67552 98.5856C9.13952 99.9976 11.0415 101.977 11.6255 102.561C12.2115 103.146 14.1935 105.053 15.6055 105.516C15.9055 105.665 16.2345 105.795 16.5815 105.9L35.6645 111.662C36.4045 111.887 37.2175 112 38.0825 112C40.5615 112 43.1155 111.048 44.5875 109.576L57.8495 96.3126C57.9335 96.2286 58.0095 96.1446 58.0835 96.0596C58.9955 95.2826 60.0425 93.4586 60.7295 91.9846C61.2365 90.8976 61.6345 89.8386 61.8855 88.9136C62.2895 88.0546 62.2875 86.9546 61.8785 85.7226ZM11.6955 99.7666C10.9685 98.8826 10.5835 98.2276 10.5065 97.9556L10.4325 97.7716C10.3134 97.5399 10.2163 97.2975 10.1425 97.0476L4.37852 77.9626C3.69952 75.7176 4.43352 72.5136 5.98152 70.9666L19.2435 57.7036C19.3115 57.6346 19.3835 57.5746 19.4525 57.5146L19.5805 57.3806C19.8065 57.0946 20.4195 56.6286 21.2995 56.1106C22.1385 56.3756 22.8525 57.1676 23.2395 58.4536L29.0015 77.5386C29.7855 80.1316 28.9595 83.6976 27.1565 85.5006L13.8965 98.7626C13.1745 99.4836 12.4085 99.7966 11.6955 99.7666ZM56.8025 94.6066L56.6655 94.7396C56.6065 94.8076 56.5485 94.8766 56.4795 94.9446L43.2195 108.208C42.1095 109.318 40.0445 110.063 38.0835 110.063C37.4548 110.069 36.8274 109.984 36.2235 109.809L17.1405 104.047C16.8907 103.972 16.6483 103.875 16.4165 103.756L16.2315 103.684C15.9605 103.608 15.3055 103.221 14.4215 102.494C14.3905 101.78 14.7015 101.015 15.4245 100.292L28.6835 87.0306C30.4875 85.2266 34.0515 84.4006 36.6455 85.1846L55.7285 90.9476C57.0165 91.3366 57.8085 92.0516 58.0725 92.8906C57.5565 93.7686 57.0885 94.3796 56.8025 94.6066ZM60.1165 88.1266L60.0405 88.3266C59.9465 88.6836 59.8175 89.0796 59.6685 89.4896C59.1315 89.5926 58.4715 89.5366 57.7065 89.2826L37.9375 82.7276C35.2495 81.8376 32.3475 78.9356 31.4595 76.2486L24.9045 56.4796C24.6515 55.7146 24.5945 55.0556 24.6975 54.5176C25.1055 54.3706 25.4985 54.2416 25.8545 54.1476L26.0575 54.0686C26.2305 53.9786 26.4535 53.9326 26.7205 53.9326C27.0525 53.9326 27.4335 54.0036 27.8545 54.1426L47.6235 60.6976C50.0115 61.4896 52.6955 64.1756 53.4865 66.5626L60.0425 86.3306C60.2905 87.0846 60.3185 87.7376 60.1165 88.1266Z" fill="#1D5464"/>
</svg>
