<svg width="170" height="116" viewBox="0 0 170 116" fill="none" xmlns="http://www.w3.org/2000/svg">
<path d="M6.94007 27.3323H24.5M5.41753 31.2745H24.5M0.501335 45.3532H24.5M11.5704 1L8.09532 4.37231L6.93873 27.3323C4.7177 27.9895 5.41619 31.2757 5.41619 31.2757L0.5 45.352L1.59516 49H47.4048L48.5 45.352L43.5851 31.2745C43.5851 31.2745 44.2823 27.9883 42.0626 27.3323L40.9033 4.37231L37.4282 1H11.5704Z" stroke="black" stroke-linecap="round" stroke-linejoin="round"/>
<path d="M42.06 27.3324H24.5001M43.5826 31.2745H24.5001M48.4974 45.3533H24.5001M24.5001 6.25793C24.5001 6.25793 17.8877 6.30963 15.9739 6.39947C13.4844 6.51517 11.9993 7.12563 11.3395 8.94716C10.7612 10.5422 10.9215 16.1041 11.1164 17.4825C11.3114 18.861 11.9912 21.1576 14.8053 21.4505C17.6193 21.7435 24.5001 21.6475 24.5001 21.6475C24.5001 21.6475 31.3809 21.7435 34.1962 21.4505C37.0116 21.1576 37.6901 18.8598 37.8837 17.4813C38.0774 16.1029 38.239 10.5422 37.6607 8.94593C37.0009 7.1244 35.5158 6.51516 33.0263 6.39824C31.1124 6.30963 24.5001 6.25793 24.5001 6.25793Z" stroke="black" stroke-linecap="round" stroke-linejoin="round"/>
<path d="M7.87769 34.2185L5.03027 42.4942H33.0637L31.1445 34.2197L7.87769 34.2185Z" stroke="#D34D4A" stroke-linejoin="round"/>
<path d="M35.7388 34.2185H40.3865C42.5702 39.8739 42.5434 40.0942 43.4035 42.493H37.9878L35.7388 34.2185Z" stroke="#D34D4A" stroke-linecap="round" stroke-linejoin="round"/>
<path d="M6.02661 38.3009H32.2396M41.9331 38.3009H36.9381M10.8587 42.2849L12.9341 34.4461M16.6617 42.4523L17.7501 34.4474M22.0921 42.2406L22.235 34.3588M27.5665 42.2898L26.4981 34.5545" stroke="#D34D4A"/>
<path d="M15.5745 17.0755C15.7953 16.7783 15.8928 16.4176 15.8491 16.0595V15.7422" stroke="#D34D4A" stroke-linecap="round" stroke-linejoin="round"/>
<path d="M23.6784 17.2942C24.2315 17.2942 24.6798 16.8809 24.6798 16.3711C24.6798 15.8613 24.2315 15.448 23.6784 15.448C23.1254 15.448 22.677 15.8613 22.677 16.3711C22.677 16.8809 23.1254 17.2942 23.6784 17.2942Z" fill="#D34D4A"/>
<path d="M26.3912 13.8985H29.1505M20.3932 10.8486H19.29V16.9483H20.3932M32.3264 10.8486H33.4296V16.9483H32.3264" stroke="#D34D4A" stroke-linecap="round" stroke-linejoin="round"/>
<path d="M94.4729 70.6875L99.4729 75.6875L94.4729 80.6875" stroke="#88AF98" stroke-width="2" stroke-linecap="round" stroke-linejoin="round"/>
<path d="M63.4729 48.6875C64.5338 48.6875 65.5512 48.2661 66.3013 47.5159C67.0515 46.7658 67.4729 45.7484 67.4729 44.6875C67.4729 43.6266 67.0515 42.6092 66.3013 41.8591C65.5512 41.1089 64.5338 40.6875 63.4729 40.6875C62.412 40.6875 61.3946 41.1089 60.6445 41.8591C59.8943 42.6092 59.4729 43.6266 59.4729 44.6875C59.4729 45.7484 59.8943 46.7658 60.6445 47.5159C61.3946 48.2661 62.412 48.6875 63.4729 48.6875Z" stroke="#88AF98" stroke-width="2" stroke-linejoin="round"/>
<path d="M67.4729 44.6874H75.4729C76.5338 44.6874 77.5512 45.1088 78.3013 45.859C79.0515 46.6091 79.4729 47.6265 79.4729 48.6874V71.6874C79.4729 72.7482 79.8943 73.7657 80.6445 74.5158C81.3946 75.266 82.412 75.6874 83.4729 75.6874H99.4729" stroke="#88AF98" stroke-width="2" stroke-linecap="round" stroke-linejoin="round"/>
<path d="M137.5 107.9C137.235 109.132 134.586 114.91 129.124 114.997C120.227 115.14 122.253 109.843 114.92 105.238C107.587 100.633 108.11 97.2839 107.462 93.5079" stroke="#D34D4A" stroke-linecap="round" stroke-linejoin="round"/>
<path d="M110.24 95.9511C104.908 93.6554 103.929 82.2781 108.045 84.1029C108.045 84.1029 104.336 72.9768 111.063 70.105" stroke="#D34D4A" stroke-linecap="round" stroke-linejoin="round"/>
<path d="M113.517 75.084C113.517 75.084 107.303 65.5628 116.206 60.7677" stroke="#D34D4A" stroke-linecap="round" stroke-linejoin="round"/>
<path d="M116.547 63.9382C116.482 63.5378 113.835 55.2555 124.001 53.9165M123.41 55.6707C123.41 55.6707 127.765 45.8246 137.502 54.7238M129.132 110.476C127.339 110.555 123.789 111.103 119.235 103.728M127.589 101.874C128.937 102.109 130.179 102.675 131.167 103.505C132.155 104.335 132.847 105.393 133.161 106.554M117.452 96.3271C116.001 95.528 114.815 94.4148 114.011 93.0974C113.208 91.78 112.815 90.3039 112.87 88.8145C113.305 83.9161 111.26 81.9222 111.26 81.9222M117.9 80.3353C117.9 80.3353 121.049 79.9973 122.363 84.3312C122.47 84.7602 122.707 85.1569 123.048 85.4811C123.389 85.8052 123.824 86.0453 124.307 86.1768C124.79 86.3083 125.305 86.3266 125.799 86.2299C126.293 86.1332 126.748 85.9248 127.119 85.626M128.497 81.6744C128.497 81.6744 132.072 82.1667 132.979 79.9513M123.444 79.0947C123.853 76.9293 123.487 74.7072 122.395 72.7275C120.788 70.0002 123.084 65.6728 123.084 65.6728M127.112 64.0777C127.112 64.0777 121.638 61.2715 127.969 56.5109M129.936 60.5544C130.896 64.7718 132.28 69.2207 129.317 75.7749M118.256 100.064C118.61 100.064 126.932 100.272 123.895 94.2709C120.858 88.2697 118.497 89.2773 117.806 83.304" stroke="#D34D4A" stroke-linecap="round" stroke-linejoin="round"/>
<path d="M131.873 94.0281C131.873 94.0281 129.277 97.238 123.057 92.7531M137.5 107.9C137.765 109.132 140.413 114.91 145.876 114.997C154.772 115.14 152.747 109.843 160.079 105.238C167.412 100.633 166.89 97.2839 167.537 93.5079" stroke="#D34D4A" stroke-linecap="round" stroke-linejoin="round"/>
<path d="M164.76 95.9511C170.092 93.6554 171.071 82.2781 166.955 84.1029C166.955 84.1029 170.664 72.9768 163.937 70.105" stroke="#D34D4A" stroke-linecap="round" stroke-linejoin="round"/>
<path d="M161.483 75.084C161.483 75.084 167.697 65.5628 158.794 60.7677" stroke="#D34D4A" stroke-linecap="round" stroke-linejoin="round"/>
<path d="M158.454 63.9382C158.518 63.5378 161.167 55.2555 151 53.9165M151.591 55.6707C151.591 55.6707 147.236 45.8246 137.499 54.7238M145.869 110.476C147.662 110.555 151.212 111.103 155.765 103.728M147.412 101.874C146.063 102.109 144.821 102.675 143.833 103.505C142.846 104.335 142.154 105.393 141.84 106.554M157.549 96.3271C159 95.528 160.186 94.4148 160.989 93.0974C161.793 91.78 162.186 90.3039 162.131 88.8145C161.695 83.9161 163.74 81.9222 163.74 81.9222M157.1 80.3353C157.1 80.3353 153.952 79.9973 152.638 84.3312C152.53 84.7602 152.294 85.1569 151.953 85.4811C151.611 85.8052 151.177 86.0453 150.694 86.1768C150.211 86.3083 149.696 86.3266 149.202 86.2299C148.708 86.1332 148.253 85.9248 147.882 85.626M146.503 81.6744C146.503 81.6744 142.929 82.1667 142.022 79.9513M151.557 79.0947C151.148 76.9293 151.514 74.7072 152.605 72.7275C154.213 70.0002 151.916 65.6728 151.916 65.6728M147.889 64.0777C147.889 64.0777 153.363 61.2715 147.031 56.5109M145.064 60.5544C144.104 64.7718 142.72 69.2207 145.683 75.7749M156.744 100.064C156.39 100.064 148.069 100.272 151.106 94.2709C154.143 88.2697 156.506 89.2773 157.195 83.304" stroke="#C9B501" stroke-linecap="round" stroke-linejoin="round"/>
<path d="M143.127 94.0281C143.127 94.0281 145.722 97.238 151.942 92.7531" stroke="#D34D4A" stroke-linecap="round" stroke-linejoin="round"/>
<path d="M137.5 107.9V54.7255" stroke="#D34D4A" stroke-linecap="round"/>
</svg>
