<svg width="444" height="369" viewBox="0 0 444 369" fill="none" xmlns="http://www.w3.org/2000/svg">
<path d="M415.874 25C348.46 165.735 175.679 125.13 269.56 105.288C363.441 85.4469 346.961 144.509 301.02 196.189C255.078 247.869 108.764 279.707 143.22 249.253C177.676 218.799 232.107 281.553 192.657 305.547C161.097 324.743 65.6518 337.847 21.874 342" stroke="black"/>
<path d="M291.486 189.174L292.308 204.97C292.308 204.97 301.732 206.438 307.797 207.464C314.059 208.523 323.874 210.316 323.874 210.316L290.595 173L291.486 189.174Z" fill="#F2D1A8"/>
<path d="M411.486 16.1742L412.308 31.9698C412.308 31.9698 421.732 33.4385 427.797 34.4641C434.059 35.5231 443.874 37.3164 443.874 37.3164L410.595 5.24521e-06L411.486 16.1742Z" fill="#F2D1A8"/>
<path d="M12.5268 329.634L5.70037 343.902C5.70037 343.902 13.2774 349.696 18.1149 353.495C23.1094 357.417 30.8741 363.683 30.8741 363.683L19.4729 315L12.5268 329.634Z" fill="#F2D1A8"/>
</svg>
