<svg width="72" height="72" viewBox="0 0 72 72" fill="none" xmlns="http://www.w3.org/2000/svg">
<path d="M36.093 61.8423C37.7499 61.8423 39.093 60.4991 39.093 58.8423C39.093 57.1854 37.7499 55.8423 36.093 55.8423C34.4362 55.8423 33.093 57.1854 33.093 58.8423C33.093 60.4991 34.4362 61.8423 36.093 61.8423Z" fill="#D34D4A"/>
<path d="M35.9871 49.3731C35.6588 49.3731 35.3337 49.3084 35.0304 49.1828C34.727 49.0571 34.4514 48.873 34.2193 48.6409C33.9871 48.4087 33.803 48.1331 33.6774 47.8298C33.5517 47.5265 33.4871 47.2014 33.4871 46.8731V11.6631C33.4871 11 33.7505 10.3642 34.2193 9.89532C34.6881 9.42648 35.324 9.16309 35.9871 9.16309C36.6501 9.16309 37.286 9.42648 37.7548 9.89532C38.2237 10.3642 38.4871 11 38.4871 11.6631V46.8731C38.4871 47.2014 38.4224 47.5265 38.2968 47.8298C38.1711 48.1331 37.987 48.4087 37.7548 48.6409C37.5227 48.873 37.2471 49.0571 36.9438 49.1828C36.6405 49.3084 36.3154 49.3731 35.9871 49.3731Z" fill="#D34D4A"/>
<path d="M35.693 62.3129C37.1803 62.3129 38.386 60.9536 38.386 59.2768C38.386 57.6 37.1803 56.2407 35.693 56.2407C34.2057 56.2407 33 57.6 33 59.2768C33 60.9536 34.2057 62.3129 35.693 62.3129Z" stroke="black" stroke-width="2" stroke-miterlimit="10" stroke-linecap="round" stroke-linejoin="round"/>
<path d="M35.5979 49.6937C35.3032 49.6937 35.0114 49.6283 34.7391 49.5011C34.4668 49.374 34.2195 49.1876 34.0111 48.9527C33.8027 48.7177 33.6374 48.4388 33.5246 48.1318C33.4118 47.8249 33.3538 47.4959 33.3538 47.1636V11.5301C33.3538 10.8591 33.5902 10.2155 34.0111 9.74104C34.4319 9.26656 35.0027 9 35.5979 9C36.1931 9 36.7639 9.26656 37.1848 9.74104C37.6057 10.2155 37.8421 10.8591 37.8421 11.5301V47.1636C37.8421 47.4959 37.784 47.8249 37.6713 48.1318C37.5585 48.4388 37.3932 48.7177 37.1848 48.9527C36.9764 49.1876 36.729 49.374 36.4567 49.5011C36.1845 49.6283 35.8926 49.6937 35.5979 49.6937Z" stroke="black" stroke-width="2" stroke-miterlimit="10" stroke-linecap="round" stroke-linejoin="round"/>
</svg>
