<svg width="64" height="66" viewBox="0 0 64 66" fill="none" xmlns="http://www.w3.org/2000/svg">
<rect y="2" width="64" height="64" fill="#EDEDED"/>
<rect width="8" height="8" fill="#181818"/>
<rect y="16" width="8" height="8" fill="#181818"/>
<rect y="32" width="8" height="8" fill="#181818"/>
<rect y="48" width="8" height="8" fill="#181818"/>
<rect x="8" y="8" width="8" height="8" fill="#181818"/>
<rect x="8" y="24" width="8" height="8" fill="#181818"/>
<rect x="8" y="40" width="8" height="8" fill="#181818"/>
<rect x="8" y="56" width="8" height="8" fill="#181818"/>
<rect x="24" y="8" width="8" height="8" fill="#181818"/>
<rect x="24" y="24" width="8" height="8" fill="#181818"/>
<rect x="24" y="40" width="8" height="8" fill="#181818"/>
<rect x="24" y="56" width="8" height="8" fill="#181818"/>
<rect x="40" y="8" width="8" height="8" fill="#181818"/>
<rect x="40" y="24" width="8" height="8" fill="#181818"/>
<rect x="40" y="40" width="8" height="8" fill="#181818"/>
<rect x="40" y="56" width="8" height="8" fill="#181818"/>
<rect x="56" y="8" width="8" height="8" fill="#181818"/>
<rect x="56" y="24" width="8" height="8" fill="#181818"/>
<rect x="56" y="40" width="8" height="8" fill="#181818"/>
<rect x="56" y="56" width="8" height="8" fill="#181818"/>
<rect x="16" width="8" height="8" fill="#181818"/>
<rect x="16" y="16" width="8" height="8" fill="#181818"/>
<rect x="16" y="32" width="8" height="8" fill="#181818"/>
<rect x="16" y="48" width="8" height="8" fill="#181818"/>
<rect x="32" width="8" height="8" fill="#181818"/>
<rect x="32" y="16" width="8" height="8" fill="#181818"/>
<rect x="32" y="32" width="8" height="8" fill="#181818"/>
<rect x="32" y="48" width="8" height="8" fill="#181818"/>
<rect x="48" width="8" height="8" fill="#181818"/>
<rect x="48" y="16" width="8" height="8" fill="#181818"/>
<rect x="48" y="32" width="8" height="8" fill="#181818"/>
<rect x="48" y="48" width="8" height="8" fill="#181818"/>
</svg>
