<svg width="199" height="171" viewBox="0 0 199 171" fill="none" xmlns="http://www.w3.org/2000/svg">
<path d="M188.777 79.2661C188.777 122.571 152.273 157.694 107.222 157.694C62.1707 157.694 25.6665 122.571 25.6665 79.2661C25.6665 35.9609 62.1707 0.838623 107.222 0.838623C152.273 0.838623 188.777 35.9609 188.777 79.2661Z" stroke="black" stroke-width="0.5"/>
<path d="M182.554 30.7565L180.86 46.5176C180.86 46.5176 171.391 47.4626 165.293 48.1514C158.998 48.8625 149.122 50.1106 149.122 50.1106L184.338 14.6204L182.554 30.7565Z" fill="#F2D1A8"/>
<path d="M182.554 30.7564L180.86 46.5175C180.86 46.5175 171.391 47.4625 165.293 48.1512C158.998 48.8624 149.122 50.1105 149.122 50.1105L184.338 14.6202L182.554 30.7564Z" fill="#F2D1A8"/>
<path d="M13.3151 87.9L25.6499 78C25.6499 78 33.0193 84.0563 37.8217 87.9C42.7801 91.8685 50.6515 98 50.6515 98H0.651454L13.3151 87.9Z" fill="#F2D1A8"/>
<path d="M156.331 154.478L141.011 150.685C141.011 150.685 141.344 141.131 141.48 134.967C141.621 128.604 141.71 118.604 141.71 118.604L172.01 158.412L156.331 154.478Z" fill="#F2D1A8"/>
</svg>
