<svg width="109" height="104" viewBox="0 0 109 104" fill="none" xmlns="http://www.w3.org/2000/svg">
<path d="M101.266 2.89055H101.191C100.984 2.90461 100.872 2.95148 100.759 3.06773L98.1718 5.65336L103.347 10.8284L105.925 8.23805C106.047 8.12273 106.094 8.0168 106.103 7.80961C106.122 7.60242 106.075 7.30055 105.934 6.95086C105.672 6.25148 105.072 5.38805 104.341 4.65867C103.609 3.9293 102.747 3.3293 102.044 3.06023C101.744 2.94211 101.472 2.89055 101.266 2.88867V2.89055ZM71.2093 2.92055L63.9202 10.2096L64.8493 11.1377L67.433 8.55492L68.6274 9.75023L66.0465 12.3377L68.0302 14.3159L70.6093 11.7377L71.8093 12.9377L69.2265 15.5159L71.2093 17.494L75.9155 12.7971L77.1155 13.9971L72.4093 18.694L74.3968 20.6815L76.9749 18.094L78.1749 19.294L75.5968 21.8815L77.5749 23.8596L80.153 21.2815L81.353 22.4815L78.7749 25.0596L80.753 27.0471L85.4593 22.3409L86.6593 23.5409L81.953 28.2471L83.9405 30.2252L86.5187 27.6471L87.7187 28.8471L85.1405 31.4252L87.1187 33.4127L89.7062 30.8252L90.9062 32.0252L88.3187 34.6127L90.2968 36.5909L95.003 31.8846L96.203 33.0846L91.4968 37.7909L93.4843 39.769L96.0624 37.1909L97.2624 38.3909L94.6843 40.969L96.6624 42.9565L99.2499 40.369L100.45 41.569L97.8624 44.1565L98.7905 45.0846L106.084 37.7909L71.2093 2.92055ZM96.9812 6.84773L96.053 7.7768L96.9812 8.70492L98.1718 9.90023L99.0999 10.8284L100.291 12.019L101.219 12.9471L102.147 12.019L96.9812 6.84773ZM94.8624 8.9693L87.2499 16.5752L88.178 17.5034L95.7905 9.90023L94.8624 8.9693ZM96.9812 11.0909L89.378 18.7034L90.3062 19.6221L97.9093 12.019L96.9812 11.0909ZM99.0999 13.2096L91.4968 20.8221L92.4249 21.7502L100.028 14.1377L99.0999 13.2096ZM77.5749 26.2502L67.8137 36.019L68.7418 36.9471L78.503 27.1784L77.5749 26.2502ZM79.6937 28.3784L69.9352 38.1377L70.8624 39.0659L80.6218 29.3065L79.6937 28.3784ZM81.8218 30.4971L72.053 40.2565L72.9812 41.1846L82.7499 31.4252L81.8218 30.4971ZM66.9287 37.519L65.7924 40.3596L68.6424 43.2096L71.4812 42.0752L70.8624 41.4565L69.6699 40.2565L68.7418 39.3284L67.5483 38.1377L66.9287 37.519ZM65.1108 42.0659L63.8921 45.1127L66.9371 43.894L65.1108 42.0659Z" fill="#D34D4A"/>
<path d="M43.7586 98.2027C53.3168 98.2027 61.0652 90.4542 61.0652 80.896C61.0652 71.3378 53.3168 63.5894 43.7586 63.5894C34.2004 63.5894 26.4519 71.3378 26.4519 80.896C26.4519 90.4542 34.2004 98.2027 43.7586 98.2027Z" stroke="#1D5464" stroke-linecap="round" stroke-linejoin="round"/>
<path d="M59.8306 45.7974L40.1133 79.9494H79.5479L59.8306 45.7974Z" stroke="#669B7C" stroke-linecap="round" stroke-linejoin="round"/>
<path d="M40 37.4085V41.844L35.5 39.3961L23.525 20.5663C25.175 20.127 26.675 19.4156 27.975 18.4741L40 37.4085ZM27.5 10.461C27.5 12.1257 26.7098 13.7221 25.3033 14.8992C23.8968 16.0763 21.9891 16.7376 20 16.7376H18.9L4.5 39.3961L0 41.844V37.4085L14.475 14.6454C11.725 12.072 11.975 8.09681 15.075 5.77447C16.425 4.77021 18.175 4.1844 20 4.1844V0C20.663 0 21.2989 0.220427 21.7678 0.612791C22.2366 1.00515 22.5 1.53731 22.5 2.0922V4.56099C25.5 5.43972 27.5 7.8039 27.5 10.461ZM22.5 10.461C22.5 9.90611 22.2366 9.37395 21.7678 8.98159C21.2989 8.58922 20.663 8.3688 20 8.3688C19.337 8.3688 18.7011 8.58922 18.2322 8.98159C17.7634 9.37395 17.5 9.90611 17.5 10.461C17.5 11.0159 17.7634 11.548 18.2322 11.9404C18.7011 12.3328 19.337 12.5532 20 12.5532C20.663 12.5532 21.2989 12.3328 21.7678 11.9404C22.2366 11.548 22.5 11.0159 22.5 10.461Z" fill="#D34D4A"/>
</svg>
