<svg width="100" height="113" viewBox="0 0 100 113" fill="none" xmlns="http://www.w3.org/2000/svg">
<path d="M40 14H32V8C32 7.46957 32.2107 6.96086 32.5858 6.58579C32.9609 6.21071 33.4696 6 34 6H38V2H32V0H38C38.5304 0 39.0391 0.210714 39.4142 0.585787C39.7893 0.96086 40 1.46957 40 2V6C40 6.53043 39.7893 7.03914 39.4142 7.41421C39.0391 7.78929 38.5304 8 38 8H34V12H40V14Z" fill="#181818"/>
<path d="M66 23H60V21H66V17H60V9H68V11H62V15H66C66.5304 15 67.0391 15.2107 67.4142 15.5858C67.7893 15.9609 68 16.4696 68 17V21C68 21.5304 67.7893 22.0391 67.4142 22.4142C67.0391 22.7893 66.5304 23 66 23Z" fill="#181818"/>
<path d="M19.0001 28.2208L33.1474 39.9264M23.9265 25.1472L38.0737 36.8528L33.7793 19" stroke="#545454" stroke-width="2" stroke-linecap="round" stroke-linejoin="round"/>
<path d="M0.508502 54.6969C-0.446978 57.0774 -1.36893 80.1538 10.8595 95.8088C19.9869 107.487 32.3327 112.267 48.5926 112.948C64.8525 113.63 80.5509 107.552 88.0942 97.9278C101.714 80.5365 100.289 59.5978 99.5767 56.4799C97.7747 48.5824 83.5934 43 50.4952 43C19.7187 43.0187 2.95587 48.6011 0.508502 54.6969Z" fill="#D6615E"/>
<path d="M24.2951 100.159C22.9792 101.923 15.1594 96.8821 9.95455 85.1011C5.39506 74.7858 5.5124 69.1848 6.3673 68.2979C7.49041 67.131 10.7759 68.2139 11.5219 70.8744C12.5276 74.4591 12.4941 78.6132 16.0059 86.268C21.3449 97.9089 25.4182 98.6557 24.2951 100.159Z" fill="#E0EBF6"/>
<path d="M6.59314 56.4332C7.0625 62.0903 24.0181 65.5069 50.8386 66.011C77.6591 66.5151 94.6314 62.3517 94.6314 57.0586C94.6314 51.7656 76.8628 47.9849 51.9701 47.7329C27.0773 47.4808 6.14055 51.0188 6.59314 56.4332Z" fill="#E0EBF6"/>
<path d="M65.1799 49.668C64.9779 50.056 64.9699 50.556 65.0389 50.902C65.0543 50.9673 65.0564 51.0351 65.0451 51.1012C65.0337 51.1674 65.0092 51.2306 64.973 51.287C64.9367 51.3435 64.8895 51.3921 64.834 51.4299C64.7786 51.4677 64.7161 51.494 64.6503 51.5072C64.5845 51.5203 64.5167 51.5201 64.451 51.5065C64.3853 51.4929 64.323 51.4662 64.2678 51.4281C64.2126 51.3899 64.1656 51.341 64.1297 51.2843C64.0939 51.2276 64.0697 51.1642 64.0589 51.098C63.9609 50.611 63.9529 49.861 64.2919 49.208C64.6549 48.504 65.3769 48 66.5419 48H78.4999C78.6325 48 78.7596 48.0527 78.8534 48.1464C78.9472 48.2402 78.9999 48.3674 78.9999 48.5C78.9999 48.6326 78.9472 48.7598 78.8534 48.8536C78.7596 48.9473 78.6325 49 78.4999 49H75.9999V58.665C75.9999 60.208 76.4689 60.723 76.8369 60.895C77.2599 61.094 77.8349 60.986 78.2729 60.763C78.3314 60.7331 78.3952 60.7149 78.4607 60.7097C78.5263 60.7045 78.5922 60.7122 78.6547 60.7324C78.7173 60.7527 78.7752 60.7851 78.8252 60.8278C78.8752 60.8704 78.9163 60.9225 78.9461 60.9811C78.976 61.0397 78.994 61.1036 78.9991 61.1691C79.0042 61.2346 78.9964 61.3005 78.976 61.363C78.9557 61.4255 78.9232 61.4834 78.8804 61.5333C78.8377 61.5832 78.7855 61.6243 78.7269 61.654C78.1649 61.94 77.2399 62.188 76.4129 61.802C75.5309 61.389 74.9999 60.378 74.9999 58.665V49H69.9999V49.028C69.873 51.2061 69.6672 53.3788 69.3829 55.542C69.2302 56.7236 69.03 57.8985 68.7829 59.064C68.5509 60.123 68.2759 61.066 67.9469 61.724C67.9178 61.7832 67.8772 61.8361 67.8276 61.8796C67.7779 61.9231 67.7202 61.9563 67.6576 61.9773C67.5951 61.9984 67.529 62.0069 67.4632 62.0022C67.3974 61.9976 67.3331 61.98 67.2741 61.9505C67.2151 61.9209 67.1626 61.88 67.1195 61.83C67.0764 61.78 67.0436 61.722 67.023 61.6593C67.0025 61.5966 66.9945 61.5305 66.9996 61.4647C67.0047 61.3989 67.0228 61.3348 67.0529 61.276C67.3239 60.734 67.5779 59.89 67.8069 58.849C68.0339 57.817 68.2279 56.626 68.3919 55.409C68.7169 52.989 68.9149 50.493 68.9989 49H66.5419C65.7139 49 65.3549 49.328 65.1789 49.668H65.1799Z" fill="#181818"/>
<path d="M57.7967 28.7849C57.5821 29.2699 57.205 29.6594 56.7484 29.8675C56.2918 30.0756 55.793 30.0854 55.3618 29.8946C54.9306 29.7039 54.6023 29.3282 54.4492 28.8503C54.296 28.3724 54.3306 27.8314 54.5452 27.3464C54.7598 26.8613 55.1369 26.4718 55.5935 26.2637C56.0501 26.0556 56.5489 26.0458 56.9801 26.2366C57.4113 26.4274 57.7396 26.803 57.8927 27.2809C58.0459 27.7588 58.0113 28.2998 57.7967 28.7849ZM46.832 29.4015C46.9393 29.159 47.1279 28.9643 47.3562 28.8602C47.5845 28.7562 47.8339 28.7513 48.0495 28.8467L61.0558 34.6006C61.2714 34.696 61.4355 34.8838 61.5121 35.1228C61.5887 35.3617 61.5714 35.6322 61.4641 35.8747C61.3568 36.1173 61.1683 36.312 60.9399 36.4161C60.7116 36.5201 60.4622 36.525 60.2466 36.4296L47.2404 30.6757C47.0248 30.5803 46.8606 30.3925 46.784 30.1535C46.7075 29.9146 46.7247 29.6441 46.832 29.4015ZM51.316 39.0397C51.7472 39.2304 52.246 39.2207 52.7026 39.0125C53.1593 38.8044 53.5364 38.415 53.751 37.9299C53.9656 37.4448 54.0001 36.9038 53.847 36.4259C53.6938 35.948 53.3655 35.5724 52.9343 35.3816C52.5032 35.1909 52.0044 35.2006 51.5477 35.4088C51.0911 35.6169 50.714 36.0063 50.4994 36.4914C50.2848 36.9765 50.2503 37.5175 50.4034 37.9954C50.5566 38.4733 50.8849 38.8489 51.316 39.0397Z" fill="#2B2B2B"/>
<path d="M26.3243 48.22C25.9563 48.0545 25.5537 47.9805 25.1509 48.0044C24.7482 48.0283 24.3571 48.1493 24.0113 48.3571C23.6654 48.5649 23.375 48.8533 23.1648 49.1978C22.9546 49.5422 22.8309 49.9324 22.8043 50.335L22.6923 51.995H21.4943C21.3617 51.995 21.2345 52.0477 21.1408 52.1414C21.047 52.2352 20.9943 52.3624 20.9943 52.495C20.9943 52.6276 21.047 52.7548 21.1408 52.8485C21.2345 52.9423 21.3617 52.995 21.4943 52.995H22.6263L22.1863 59.59C22.1702 59.8315 22.0959 60.0655 21.9697 60.272C21.8435 60.4785 21.6692 60.6515 21.4617 60.776C21.2542 60.9006 21.0197 60.9731 20.7781 60.9874C20.5365 61.0017 20.295 60.9573 20.0743 60.858L19.6993 60.689C19.5787 60.6366 19.4423 60.6338 19.3196 60.6812C19.1969 60.7287 19.0979 60.8226 19.044 60.9425C18.99 61.0625 18.9855 61.1989 19.0315 61.3221C19.0774 61.4454 19.17 61.5456 19.2893 61.601L19.6643 61.771C20.0322 61.9365 20.4347 62.0105 20.8374 61.9866C21.2401 61.9628 21.6311 61.8419 21.977 61.6342C22.3228 61.4265 22.6132 61.1382 22.8235 60.7939C23.0337 60.4496 23.1575 60.0595 23.1843 59.657L23.6283 52.995H25.4943C25.6269 52.995 25.7541 52.9423 25.8479 52.8485C25.9416 52.7548 25.9943 52.6276 25.9943 52.495C25.9943 52.3624 25.9416 52.2352 25.8479 52.1414C25.7541 52.0477 25.6269 51.995 25.4943 51.995H23.6943L23.8013 50.4C23.8174 50.1584 23.8917 49.9242 24.0179 49.7176C24.1442 49.511 24.3185 49.3379 24.5262 49.2133C24.7338 49.0887 24.9685 49.0163 25.2102 49.0021C25.452 48.9879 25.6935 49.0325 25.9143 49.132L26.2903 49.302C26.3503 49.3289 26.4149 49.3438 26.4806 49.3457C26.5463 49.3476 26.6117 49.3366 26.6731 49.3132C26.7346 49.2899 26.7908 49.2547 26.8386 49.2096C26.8864 49.1645 26.9249 49.1104 26.9518 49.0505C26.9787 48.9905 26.9936 48.9259 26.9955 48.8602C26.9974 48.7945 26.9864 48.7291 26.9631 48.6677C26.9397 48.6062 26.9045 48.55 26.8594 48.5022C26.8143 48.4544 26.7603 48.4159 26.7003 48.389L26.3253 48.22H26.3243Z" fill="#181818"/>
<path d="M26.1544 55.043C26.1816 55.016 26.2147 54.9956 26.251 54.9834C26.2873 54.9712 26.326 54.9675 26.364 54.9726C26.402 54.9777 26.4383 54.9915 26.4701 55.0129C26.5019 55.0343 26.5283 55.0627 26.5474 55.096L27.8704 57.412L25.1404 60.142C25.094 60.1885 25.0572 60.2436 25.0321 60.3044C25.007 60.3651 24.9941 60.4301 24.9941 60.4958C24.9942 60.5615 25.0072 60.6266 25.0324 60.6873C25.0575 60.7479 25.0944 60.8031 25.1409 60.8495C25.1874 60.8959 25.2426 60.9327 25.3033 60.9578C25.364 60.9829 25.4291 60.9958 25.4948 60.9958C25.5605 60.9957 25.6255 60.9827 25.6862 60.9575C25.7469 60.9324 25.802 60.8955 25.8484 60.849L28.3854 58.312L29.5734 60.391C29.6688 60.5578 29.8014 60.7003 29.9609 60.8076C30.1204 60.9148 30.3024 60.9838 30.4929 61.0092C30.6834 61.0347 30.8772 61.0159 31.0592 60.9542C31.2412 60.8926 31.4066 60.7899 31.5424 60.654L31.8484 60.349C31.9422 60.2551 31.9948 60.1278 31.9947 59.9951C31.9946 59.8624 31.9418 59.7352 31.8479 59.6415C31.8014 59.5951 31.7463 59.5582 31.6855 59.5332C31.6248 59.5081 31.5598 59.4952 31.4941 59.4952C31.3614 59.4953 31.2342 59.5481 31.1404 59.642L30.8354 59.947C30.8083 59.9742 30.7752 59.9948 30.7388 60.0072C30.7024 60.0196 30.6637 60.0235 30.6256 60.0184C30.5874 60.0134 30.551 59.9996 30.5191 59.9782C30.4871 59.9568 30.4606 59.9283 30.4414 59.895L29.1184 57.579L31.8484 54.849C31.8962 54.8029 31.9343 54.7477 31.9605 54.6867C31.9867 54.6257 32.0005 54.5601 32.001 54.4937C32.0016 54.4273 31.989 54.3615 31.9638 54.3C31.9387 54.2386 31.9016 54.1827 31.8546 54.1358C31.8077 54.0888 31.7518 54.0517 31.6904 54.0266C31.6289 54.0014 31.5631 53.9888 31.4967 53.9894C31.4303 53.9899 31.3647 54.0037 31.3037 54.0299C31.2427 54.0561 31.1875 54.0942 31.1414 54.142L28.6034 56.679L27.4154 54.599C27.32 54.4322 27.1874 54.2896 27.0279 54.1824C26.8685 54.0752 26.6864 54.0062 26.4959 53.9807C26.3055 53.9553 26.1117 53.9741 25.9297 54.0357C25.7476 54.0973 25.5823 54.2001 25.4464 54.336L25.1404 54.642C25.094 54.6885 25.0572 54.7436 25.0321 54.8044C25.007 54.8651 24.9941 54.9301 24.9941 54.9958C24.9942 55.1285 25.047 55.2557 25.1409 55.3495C25.2348 55.4432 25.3621 55.4959 25.4948 55.4958C25.6275 55.4957 25.7547 55.4429 25.8484 55.349L26.1544 55.043Z" fill="#181818"/>
</svg>
