<svg width="48" height="48" viewBox="0 0 48 48" fill="none" xmlns="http://www.w3.org/2000/svg">
<path d="M24 0C17.6363 0 11.5275 2.53013 7.03125 7.02938C2.53036 11.5304 0.00124676 17.6347 0 24C0 30.3626 2.53125 36.4714 7.03125 40.9706C11.5275 45.4699 17.6363 48 24 48C30.3637 48 36.4725 45.4699 40.9688 40.9706C45.4688 36.4714 48 30.3626 48 24C48 17.6374 45.4688 11.5286 40.9688 7.02938C36.4725 2.53013 30.3637 0 24 0Z" fill="url(#paint0_linear_42_51)"/>
<path d="M10.8639 23.7466C17.8614 20.6986 22.5264 18.689 24.8589 17.7181C31.5264 14.9457 32.9102 14.4642 33.8139 14.4479C34.0127 14.4447 34.4552 14.4938 34.7439 14.7273C34.9839 14.9241 35.0514 15.1904 35.0852 15.3773C35.1152 15.5641 35.1564 15.9897 35.1227 16.322C34.7627 20.117 33.1989 29.3262 32.4039 33.5768C32.0702 35.3753 31.4064 35.9783 30.7652 36.0372C29.3702 36.1655 28.3127 35.1162 26.9627 34.2316C24.8514 32.8467 23.6589 31.985 21.6077 30.6338C19.2377 29.0723 20.7752 28.214 22.1252 26.8115C22.4777 26.4443 28.6202 20.8587 28.7364 20.3521C28.7514 20.2887 28.7664 20.0525 28.6239 19.928C28.4852 19.8031 28.2789 19.8458 28.1289 19.8796C27.9152 19.9276 24.5439 22.1581 18.0039 26.5707C17.0477 27.2285 16.1814 27.5491 15.4014 27.5322C14.5464 27.5138 12.8964 27.0477 11.6702 26.6495C10.1702 26.1608 8.97393 25.9025 9.07893 25.0726C9.13143 24.6406 9.72768 24.1985 10.8639 23.7466Z" fill="white"/>
<defs>
<linearGradient id="paint0_linear_42_51" x1="2400" y1="0" x2="2400" y2="4800" gradientUnits="userSpaceOnUse">
<stop stop-color="#2AABEE"/>
<stop offset="1" stop-color="#229ED9"/>
</linearGradient>
</defs>
</svg>
