<svg width="607" height="431" viewBox="0 0 607 431" fill="none" xmlns="http://www.w3.org/2000/svg">
<path d="M23.7349 23.9999C104.869 90.1645 305.204 75.2694 264.207 57.9012C223.21 40.5329 173.612 78.8533 232.957 87.1239C292.303 95.3945 330.528 38.3363 421.372 68.7782C510.689 98.7085 540.327 202.912 505.064 198.501C469.801 194.09 537.333 148.128 557.688 166.874C573.972 181.872 520.488 253.219 559.049 305.173C602.146 373.049 505.064 406.149 505.064 376.401C505.064 346.653 539.512 386.618 557.688 399.026C568.122 406.149 569.029 410.758 589.444 406.149" stroke="black" stroke-linecap="round" stroke-linejoin="round"/>
<path d="M16.5574 35.5438L32.3547 30.5825C32.3547 30.5825 31.4685 21.5588 30.9798 15.7305C30.4753 9.71291 29.8197 0.245314 29.8197 0.245314L0.394079 40.6697L16.5574 35.5438Z" fill="#F2D1A8"/>
<path d="M406.127 75.0157L421.642 69.3264C421.642 69.3264 420.328 60.3331 419.562 54.5205C418.772 48.5193 417.667 39.071 417.667 39.071L390.254 80.8867L406.127 75.0157Z" fill="#F2D1A8"/>
<path d="M597.1 418.336L607 406C607 406 600.944 398.631 597.1 393.829C593.131 388.871 587 381 587 381V431L597.1 418.336Z" fill="#F2D1A8"/>
</svg>
