<svg width="188" height="330" viewBox="0 0 188 330" fill="none" xmlns="http://www.w3.org/2000/svg">
<path d="M1 1C93.5 68.5 62 132 43 96C24 60 72.5 12 102 37C131.5 62 167 129.5 152.5 178C138 226.5 76.5 184 102 159C127.5 134 195 195.5 186.5 222.5C178 249.5 108 296 85 304.5" stroke="black" stroke-width="0.5"/>
<path d="M110.674 31.1407L109.701 45.9298C109.701 45.9298 100.835 46.753 95.1284 47.3584C89.2366 47.9835 80 49.0886 80 49.0886L111.718 16L110.674 31.1407Z" fill="#F2D1A8"/>
<path d="M99.9887 203.073L102.739 188.51C102.739 188.51 111.64 188.762 117.378 188.85C123.302 188.94 132.605 188.958 132.605 188.958L97.1258 217.977L99.9887 203.073Z" fill="#F2D1A8"/>
<path d="M89.9713 315.42L77.0579 308.146C77.0579 308.146 80.1503 299.796 82.0726 294.389C84.0572 288.806 87.0557 280 87.0557 280L103.171 322.909L89.9713 315.42Z" fill="#F2D1A8"/>
</svg>
